0
SECTION
2
HEADER
9
$INSUNITS
70
4
9
$ACADVER
1
AC1014
9
$HANDSEED
5
FFFF
0
ENDSEC
0
SECTION
2
TABLES
0
TABLE
2
VPORT
5
8
100
AcDbSymbolTable
0
ENDTAB
0
TABLE
2
LTYPE
5
5
100
AcDbSymbolTable
0
LTYPE
5
14
100
AcDbSymbolTableRecord
100
AcDbLinetypeTableRecord
2
BYBLOCK
70
0
0
LTYPE
5
15
100
AcDbSymbolTableRecord
100
AcDbLinetypeTableRecord
2
BYLAYER
70
0
0
ENDTAB
0
TABLE
2
LAYER
5
2
100
AcDbSymbolTable
70
2
0
LAYER
5
50
100
AcDbSymbolTableRecord
100
AcDbLayerTableRecord
2
0
70
0
6
CONTINUOUS
0
ENDTAB
0
TABLE
2
STYLE
5
3
100
AcDbSymbolTable
70
1
0
STYLE
5
11
100
AcDbSymbolTableRecord
100
AcDbTextStyleTableRecord
2
STANDARD
70
0
0
ENDTAB
0
TABLE
2
VIEW
5
6
100
AcDbSymbolTable
70
0
0
ENDTAB
0
TABLE
2
UCS
5
7
100
AcDbSymbolTable
70
0
0
ENDTAB
0
TABLE
2
APPID
5
9
100
AcDbSymbolTable
70
2
0
APPID
5
12
100
AcDbSymbolTableRecord
100
AcDbRegAppTableRecord
2
ACAD
70
0
0
ENDTAB
0
TABLE
2
DIMSTYLE
5
A
100
AcDbSymbolTable
70
1
0
ENDTAB
0
TABLE
2
BLOCK_RECORD
5
1
100
AcDbSymbolTable
70
1
0
BLOCK_RECORD
5
1F
100
AcDbSymbolTableRecord
100
AcDbBlockTableRecord
2
*MODEL_SPACE
0
BLOCK_RECORD
5
1B
100
AcDbSymbolTableRecord
100
AcDbBlockTableRecord
2
*PAPER_SPACE
0
ENDTAB
0
ENDSEC
0
SECTION
2
BLOCKS
0
BLOCK
5
20
100
AcDbEntity
100
AcDbBlockBegin
2
*MODEL_SPACE
0
ENDBLK
5
21
100
AcDbEntity
100
AcDbBlockEnd
0
BLOCK
5
1C
100
AcDbEntity
100
AcDbBlockBegin
2
*PAPER_SPACE
0
ENDBLK
5
1D
100
AcDbEntity
100
AcDbBlockEnd
0
ENDSEC
0
SECTION
2
ENTITIES
0
LWPOLYLINE
5
100
100
AcDbEntity
8
0
100
AcDbPolyline
90
4
70
1
43
0.0
10
-18.285148650259526
20
-15.883045118981993
10
3.7148516775656102
20
-15.883045118982004
10
3.7148516775656137
20
-11.883045059377435
10
-18.285148650259522
20
-11.883045059377423
0
LWPOLYLINE
5
101
100
AcDbEntity
8
0
100
AcDbPolyline
90
4
70
1
43
0.0
10
-15.35520718055438
20
-11.373780320806237
10
-0.35520695703701316
20
-11.373780320806226
10
-0.35520695703701582
20
-6.3737802463004387
10
-15.355207180554384
20
-6.3737802463004485
0
LINE
5
102
100
AcDbEntity
8
0
100
AcDbLine
10
-13.82653231158927
20
-14.827179235154862
30
0
11
-13.826532311589268
21
-12.938911092216248
31
0
0
LINE
5
103
100
AcDbEntity
8
0
100
AcDbLine
10
-13.82653231158927
20
-12.938911092216248
30
0
11
-13.755063064248114
21
-12.938911092216248
31
0
0
LINE
5
104
100
AcDbEntity
8
0
100
AcDbLine
10
-13.755063064248114
20
-12.938911092216248
30
0
11
-13.755063064248116
21
-14.827179235154862
31
0
0
LINE
5
105
100
AcDbEntity
8
0
100
AcDbLine
10
-13.755063064248114
20
-14.827179235154862
30
0
11
-13.82653231158927
21
-14.827179235154862
31
0
0
LINE
5
106
100
AcDbEntity
8
0
100
AcDbLine
10
-14.376767821461707
20
-14.883045178586716
30
0
11
-14.376767821461707
21
-14.704274159604783
31
0
0
LINE
5
107
100
AcDbEntity
8
0
100
AcDbLine
10
-14.376767821461707
20
-14.704274159604783
30
0
11
-13.202099747807532
21
-14.704274159604783
31
0
0
LINE
5
108
100
AcDbEntity
8
0
100
AcDbLine
10
-13.202099747807532
20
-14.704274159604783
30
0
11
-13.202099747807532
21
-14.883045178586716
31
0
0
LINE
5
109
100
AcDbEntity
8
0
100
AcDbLine
10
-13.202099747807532
20
-14.883045178586716
30
0
11
-14.376767821461707
21
-14.883045178586716
31
0
0
LINE
5
110
100
AcDbEntity
8
0
100
AcDbLine
10
-14.376767821461707
20
-13.061816167766327
30
0
11
-14.376767821461707
21
-12.883045297796006
31
0
0
LINE
5
111
100
AcDbEntity
8
0
100
AcDbLine
10
-14.376767821461707
20
-12.883045297796006
30
0
11
-13.202099747807532
21
-12.883045297796006
31
0
0
LINE
5
112
100
AcDbEntity
8
0
100
AcDbLine
10
-13.202099747807532
20
-12.883045297796006
30
0
11
-13.202099747807532
21
-13.061816167766327
31
0
0
LINE
5
113
100
AcDbEntity
8
0
100
AcDbLine
10
-13.202099747807532
20
-13.061816167766327
30
0
11
-14.376767821461707
21
-13.061816167766327
31
0
0
LINE
5
114
100
AcDbEntity
8
0
100
AcDbLine
10
-11.558847375065833
20
-14.827179235154862
30
0
11
-12.372242159993199
21
-13.003527891570801
31
0
0
LINE
5
115
100
AcDbEntity
8
0
100
AcDbLine
10
-12.372242159993201
20
-13.003527891570801
30
0
11
-12.442903466374426
21
-13.003527891570801
31
0
0
LINE
5
116
100
AcDbEntity
8
0
100
AcDbLine
10
-12.442903466374426
20
-13.003527891570801
30
0
11
-12.442903466374426
21
-12.938911092216248
31
0
0
LINE
5
117
100
AcDbEntity
8
0
100
AcDbLine
10
-12.442903466374426
20
-12.938911092216248
30
0
11
-12.32918614879325
21
-12.938911092216248
31
0
0
LINE
5
118
100
AcDbEntity
8
0
100
AcDbLine
10
-12.32918614879325
20
-12.938911092216248
30
0
11
-11.515791363865883
21
-14.762562435800309
31
0
0
LINE
5
119
100
AcDbEntity
8
0
100
AcDbLine
10
-11.515791363865882
20
-14.762562435800309
30
0
11
-11.467650480420142
21
-14.762562435800309
31
0
0
LINE
5
120
100
AcDbEntity
8
0
100
AcDbLine
10
-11.467650480420142
20
-14.762562435800309
30
0
11
-11.467650480420142
21
-14.827179235154862
31
0
0
LINE
5
121
100
AcDbEntity
8
0
100
AcDbLine
10
-11.467650480420142
20
-14.827179235154862
30
0
11
-11.558847375065833
21
-14.827179235154862
31
0
0
LINE
5
122
100
AcDbEntity
8
0
100
AcDbLine
10
-12.559043712765723
20
-14.883045178586716
30
0
11
-12.559043712765721
21
-12.883045297796006
31
0
0
LINE
5
123
100
AcDbEntity
8
0
100
AcDbLine
10
-12.559043712765723
20
-12.883045297796006
30
0
11
-12.37304920688346
21
-12.883045297796006
31
0
0
LINE
5
124
100
AcDbEntity
8
0
100
AcDbLine
10
-12.37304920688346
20
-12.883045297796006
30
0
11
-12.373049206883461
21
-14.883045178586716
31
0
0
LINE
5
125
100
AcDbEntity
8
0
100
AcDbLine
10
-12.37304920688346
20
-14.883045178586716
30
0
11
-12.559043712765723
21
-14.883045178586716
31
0
0
LINE
5
126
100
AcDbEntity
8
0
100
AcDbLine
10
-11.515573210866004
20
-14.883045178586716
30
0
11
-11.515573210866002
21
-12.883045297796006
31
0
0
LINE
5
127
100
AcDbEntity
8
0
100
AcDbLine
10
-11.515573210866004
20
-12.883045297796007
30
0
11
-11.329600758702307
21
-12.883045297796007
31
0
0
LINE
5
128
100
AcDbEntity
8
0
100
AcDbLine
10
-11.329600758702307
20
-12.883045297796007
30
0
11
-11.329600758702309
21
-14.883045178586718
31
0
0
LINE
5
129
100
AcDbEntity
8
0
100
AcDbLine
10
-11.329600758702307
20
-14.883045178586718
30
0
11
-11.515573210866004
21
-14.883045178586718
31
0
0
LINE
5
130
100
AcDbEntity
8
0
100
AcDbLine
10
-10.134934134633093
20
-14.827179235154864
30
0
11
-10.134934134633092
21
-12.93891109221625
31
0
0
LINE
5
131
100
AcDbEntity
8
0
100
AcDbLine
10
-10.134934134633093
20
-12.93891109221625
30
0
11
-10.063486046940833
21
-12.93891109221625
31
0
0
LINE
5
132
100
AcDbEntity
8
0
100
AcDbLine
10
-10.063486046940833
20
-12.93891109221625
30
0
11
-10.063486046940834
21
-14.827179235154864
31
0
0
LINE
5
133
100
AcDbEntity
8
0
100
AcDbLine
10
-10.063486046940833
20
-14.827179235154864
30
0
11
-10.134934134633093
21
-14.827179235154864
31
0
0
LINE
5
134
100
AcDbEntity
8
0
100
AcDbLine
10
-10.807048626095801
20
-13.061816167766329
30
0
11
-10.807048626095801
21
-12.883045148784396
31
0
0
LINE
5
135
100
AcDbEntity
8
0
100
AcDbLine
10
-10.807048626095801
20
-12.883045148784396
30
0
11
-9.3913715554781252
21
-12.883045148784396
31
0
0
LINE
5
136
100
AcDbEntity
8
0
100
AcDbLine
10
-9.3913715554781252
20
-12.883045148784396
30
0
11
-9.3913715554781252
21
-13.061816167766329
31
0
0
LINE
5
137
100
AcDbEntity
8
0
100
AcDbLine
10
-9.3913715554781252
20
-13.061816167766329
30
0
11
-10.807048626095801
21
-13.061816167766329
31
0
0
LINE
5
138
100
AcDbEntity
8
0
100
AcDbLine
10
-8.8523870183534932
20
-14.883045178586718
30
0
11
-8.8523870183534914
21
-12.883045297796007
31
0
0
LINE
5
139
100
AcDbEntity
8
0
100
AcDbLine
10
-8.8523870183534914
20
-12.883045297796007
30
0
11
-8.666393108517676
21
-12.883045297796007
31
0
0
LINE
5
140
100
AcDbEntity
8
0
100
AcDbLine
10
-8.666393108517676
20
-12.883045297796007
30
0
11
-8.6663931085176777
21
-14.883045178586718
31
0
0
LINE
5
141
100
AcDbEntity
8
0
100
AcDbLine
10
-8.6663931085176777
20
-14.883045178586718
30
0
11
-8.8523870183534932
21
-14.883045178586718
31
0
0
LINE
5
142
100
AcDbEntity
8
0
100
AcDbLine
10
-8.8523870183534932
20
-14.883045178586718
30
0
11
-8.8523870183534932
21
-14.704274159604784
31
0
0
LINE
5
143
100
AcDbEntity
8
0
100
AcDbLine
10
-8.8523870183534932
20
-14.704274159604784
30
0
11
-7.5736474467821422
21
-14.704274159604784
31
0
0
LINE
5
144
100
AcDbEntity
8
0
100
AcDbLine
10
-7.5736474467821413
20
-14.704274159604784
30
0
11
-7.5736474467821413
21
-14.883045178586718
31
0
0
LINE
5
145
100
AcDbEntity
8
0
100
AcDbLine
10
-7.5736474467821431
20
-14.883045178586718
30
0
11
-8.8523870183534932
21
-14.883045178586718
31
0
0
LINE
5
146
100
AcDbEntity
8
0
100
AcDbLine
10
-8.8523870183534914
20
-13.971033912832018
30
0
11
-8.8523870183534914
21
-13.792263191873309
31
0
0
LINE
5
147
100
AcDbEntity
8
0
100
AcDbLine
10
-8.8523870183534914
20
-13.792263191873309
30
0
11
-7.8201341106005007
21
-13.792263191873309
31
0
0
LINE
5
148
100
AcDbEntity
8
0
100
AcDbLine
10
-7.8201341106005007
20
-13.792263191873309
30
0
11
-7.8201341106005007
21
-13.971033912832018
31
0
0
LINE
5
149
100
AcDbEntity
8
0
100
AcDbLine
10
-7.8201341106005007
20
-13.971033912832018
30
0
11
-8.8523870183534914
21
-13.971033912832018
31
0
0
LINE
5
150
100
AcDbEntity
8
0
100
AcDbLine
10
-8.8523870183534914
20
-13.061816167766329
30
0
11
-8.8523870183534914
21
-12.883045297796007
31
0
0
LINE
5
151
100
AcDbEntity
8
0
100
AcDbLine
10
-8.8523870183534914
20
-12.883045297796007
30
0
11
-7.5736474467821413
21
-12.883045297796007
31
0
0
LINE
5
152
100
AcDbEntity
8
0
100
AcDbLine
10
-7.5736474467821413
20
-12.883045297796007
30
0
11
-7.5736474467821413
21
-13.061816167766329
31
0
0
LINE
5
153
100
AcDbEntity
8
0
100
AcDbLine
10
-7.5736474467821413
20
-13.061816167766329
30
0
11
-8.8523870183534914
21
-13.061816167766329
31
0
0
LINE
5
154
100
AcDbEntity
8
0
100
AcDbLine
10
-6.9305908156938845
20
-14.077179354364153
30
0
11
-6.9305908156938845
21
-13.895614963704821
31
0
0
LINE
5
155
100
AcDbEntity
8
0
100
AcDbLine
10
-6.9305908156938845
20
-13.895614963704821
30
0
11
-6.3165676070757204
21
-13.895614963704821
31
0
0
SPLINE
5
156
100
AcDbEntity
8
0
100
AcDbSpline
70
0
71
2
72
6
73
3
74
0
42
0.000000001
43
0.0000000001
44
0.0000000001
40
0
40
0
40
0
40
1
40
1
40
1
10
-6.3165676070757204
20
-13.895614963704821
30
0
10
-6.1309003306932741
20
-13.895614963704821
30
0
10
-6.0309194995470339
20
-13.793637973005053
30
0
0
SPLINE
5
157
100
AcDbEntity
8
0
100
AcDbSpline
70
0
71
2
72
6
73
3
74
0
42
0.000000001
43
0.0000000001
44
0.0000000001
40
0
40
0
40
0
40
1
40
1
40
1
10
-6.0309194995470339
20
-13.793637973005053
30
0
10
-5.9309398604936892
20
-13.691660684282061
30
0
10
-5.9309398604936892
20
-13.499970656568285
30
0
0
SPLINE
5
158
100
AcDbEntity
8
0
100
AcDbSpline
70
0
71
2
72
6
73
3
74
0
42
0.000000001
43
0.0000000001
44
0.0000000001
40
0
40
0
40
0
40
1
40
1
40
1
10
-5.9309398604936892
20
-13.499970656568285
30
0
10
-5.9309398604936892
20
-13.288771432573077
30
0
10
-6.0315751506395632
20
-13.175293874675511
30
0
0
SPLINE
5
159
100
AcDbEntity
8
0
100
AcDbSpline
70
0
71
2
72
6
73
3
74
0
42
0.000000001
43
0.0000000001
44
0.0000000001
40
0
40
0
40
0
40
1
40
1
40
1
10
-6.0315751506395632
20
-13.175293874675511
30
0
10
-6.1322092486925417
20
-13.061816167766331
30
0
10
-6.3165676070757204
20
-13.061816167766331
30
0
0
LINE
5
160
100
AcDbEntity
8
0
100
AcDbLine
10
-6.3165676070757204
20
-13.061816167766331
30
0
11
-6.9187628699846559
21
-13.061816167766331
31
0
0
LINE
5
161
100
AcDbEntity
8
0
100
AcDbLine
10
-6.9187628699846559
20
-13.061816167766329
30
0
11
-6.9579779578752809
21
-12.883045297796007
31
0
0
LINE
5
162
100
AcDbEntity
8
0
100
AcDbLine
10
-6.9579779578752809
20
-12.883045297796007
30
0
11
-6.3165676070757204
21
-12.883045297796007
31
0
0
SPLINE
5
163
100
AcDbEntity
8
0
100
AcDbSpline
70
0
71
2
72
6
73
3
74
0
42
0.000000001
43
0.0000000001
44
0.0000000001
40
0
40
0
40
0
40
1
40
1
40
1
10
-6.3165676070757204
20
-12.883045297796009
30
0
10
-6.0442423297472292
20
-12.883045297796009
30
0
10
-5.8932303859300905
20
-13.038455021316288
30
0
0
SPLINE
5
164
100
AcDbEntity
8
0
100
AcDbSpline
70
0
71
2
72
6
73
3
74
0
42
0.000000001
43
0.0000000001
44
0.0000000001
40
0
40
0
40
0
40
1
40
1
40
1
10
-5.8932303859300905
20
-13.038455021316288
30
0
10
-5.7422184421129518
20
-13.193864893848179
30
0
10
-5.7422184421129518
20
-13.472583514386891
30
0
0
SPLINE
5
165
100
AcDbEntity
8
0
100
AcDbSpline
70
0
71
2
72
6
73
3
74
0
42
0.000000001
43
0.0000000001
44
0.0000000001
40
0
40
0
40
0
40
1
40
1
40
1
10
-5.7422184421129518
20
-13.472583514386891
30
0
10
-5.7422184421129518
20
-13.756953996354817
30
0
10
-5.8928596450395876
20
-13.917066675359486
30
0
0
SPLINE
5
166
100
AcDbEntity
8
0
100
AcDbSpline
70
0
71
2
72
6
73
3
74
0
42
0.000000001
43
0.0000000001
44
0.0000000001
40
0
40
0
40
0
40
1
40
1
40
1
10
-5.8928596450395876
20
-13.917066675359486
30
0
10
-6.0435008479662233
20
-14.077179354364153
30
0
10
-6.3165676070757204
20
-14.077179354364153
30
0
0
LINE
5
167
100
AcDbEntity
8
0
100
AcDbLine
10
-6.3165676070757204
20
-14.077179354364153
30
0
11
-6.9305908156938845
21
-14.077179354364153
31
0
0
LINE
5
168
100
AcDbEntity
8
0
100
AcDbLine
10
-7.0346629096575093
20
-14.883045178586718
30
0
11
-7.0346629096575084
21
-12.883045297796007
31
0
0
LINE
5
169
100
AcDbEntity
8
0
100
AcDbLine
10
-7.0346629096575075
20
-12.883045297796007
30
0
11
-6.8486689998216921
21
-12.883045297796007
31
0
0
LINE
5
170
100
AcDbEntity
8
0
100
AcDbLine
10
-6.8486689998216921
20
-12.883045297796007
30
0
11
-6.848668999821693
21
-14.883045178586718
31
0
0
LINE
5
171
100
AcDbEntity
8
0
100
AcDbLine
10
-6.8486689998216939
20
-14.883045178586718
30
0
11
-7.0346629096575093
21
-14.883045178586718
31
0
0
LINE
5
172
100
AcDbEntity
8
0
100
AcDbLine
10
-5.8707093669481587
20
-14.88304517858672
30
0
11
-6.3664102031297984
21
-13.913378637964009
31
0
0
LINE
5
173
100
AcDbEntity
8
0
100
AcDbLine
10
-6.3664102031297976
20
-13.913378637964007
30
0
11
-6.1675404979296022
21
-13.913378637964007
31
0
0
LINE
5
174
100
AcDbEntity
8
0
100
AcDbLine
10
-6.1675404979296022
20
-13.913378637964007
30
0
11
-5.6710099650926891
21
-14.883045178586718
31
0
0
LINE
5
175
100
AcDbEntity
8
0
100
AcDbLine
10
-5.67100996509269
20
-14.88304517858672
30
0
11
-5.8707093669481587
21
-14.88304517858672
31
0
0
LINE
5
176
100
AcDbEntity
8
0
100
AcDbLine
10
-4.6905111743517232
20
-14.88304517858672
30
0
11
-5.3196358157701784
21
-12.883045297796009
31
0
0
LINE
5
177
100
AcDbEntity
8
0
100
AcDbLine
10
-5.3196358157701784
20
-12.883045297796009
30
0
11
-5.1316546870775515
21
-12.883045297796009
31
0
0
LINE
5
178
100
AcDbEntity
8
0
100
AcDbLine
10
-5.1316546870775515
20
-12.883045297796009
30
0
11
-4.5496892406053853
21
-14.721754115754841
31
0
0
LINE
5
179
100
AcDbEntity
8
0
100
AcDbLine
10
-4.5496892406053835
20
-14.721754115754841
30
0
11
-4.5785617305345827
21
-14.721754115754841
31
0
0
LINE
5
180
100
AcDbEntity
8
0
100
AcDbLine
10
-4.5785617305345827
20
-14.721754115754841
30
0
11
-3.9965724422045028
21
-12.883045297796009
31
0
0
LINE
5
181
100
AcDbEntity
8
0
100
AcDbLine
10
-3.9965724422045046
20
-12.883045297796009
30
0
11
-3.8081120921678835
21
-12.883045297796009
31
0
0
LINE
5
182
100
AcDbEntity
8
0
100
AcDbLine
10
-3.8081120921678835
20
-12.883045297796009
30
0
11
-4.4377612544603657
21
-14.88304517858672
31
0
0
LINE
5
183
100
AcDbEntity
8
0
100
AcDbLine
10
-4.4377612544603657
20
-14.88304517858672
30
0
11
-4.6905111743517232
21
-14.88304517858672
31
0
0
LINE
5
184
100
AcDbEntity
8
0
100
AcDbLine
10
-3.4745239688463525
20
-14.88304517858672
30
0
11
-2.8341841174669562
21
-12.883045297796009
31
0
0
LINE
5
185
100
AcDbEntity
8
0
100
AcDbLine
10
-2.8341841174669558
20
-12.883045297796013
30
0
11
-2.6038670016832643
21
-12.883045297796013
31
0
0
LINE
5
186
100
AcDbEntity
8
0
100
AcDbLine
10
-2.6038670016832643
20
-12.883045297796013
30
0
11
-1.9630026294298482
21
-14.883045178586723
31
0
0
LINE
5
187
100
AcDbEntity
8
0
100
AcDbLine
10
-1.9630026294298486
20
-14.883045178586723
30
0
11
-2.1497606708116845
21
-14.883045178586723
31
0
0
LINE
5
188
100
AcDbEntity
8
0
100
AcDbLine
10
-2.1497606708116845
20
-14.883045178586723
30
0
11
-2.7330994082994757
21
-13.058019053870918
31
0
0
LINE
5
189
100
AcDbEntity
8
0
100
AcDbLine
10
-2.7330994082994753
20
-13.058019053870918
30
0
11
-2.7049493266649538
21
-13.058019053870918
31
0
0
LINE
5
190
100
AcDbEntity
8
0
100
AcDbLine
10
-2.7049493266649538
20
-13.058019053870918
30
0
11
-3.2882904483385396
21
-14.883045178586723
31
0
0
LINE
5
191
100
AcDbEntity
8
0
100
AcDbLine
10
-3.28829044833854
20
-14.88304517858672
30
0
11
-3.4745239688463525
21
-14.88304517858672
31
0
0
LINE
5
192
100
AcDbEntity
8
0
100
AcDbLine
10
-3.1899570895738893
20
-14.285279732877491
30
0
11
-3.1899570895738893
21
-14.218240600759266
31
0
0
LINE
5
193
100
AcDbEntity
8
0
100
AcDbLine
10
-3.1899570895738893
20
-14.218240600759266
30
0
11
-2.2612738086290651
21
-14.218240600759266
31
0
0
LINE
5
194
100
AcDbEntity
8
0
100
AcDbLine
10
-2.2612738086290651
20
-14.21824060075927
30
0
11
-2.2612738086290651
21
-14.285279732877495
31
0
0
LINE
5
195
100
AcDbEntity
8
0
100
AcDbLine
10
-2.2612738086290651
20
-14.285279732877495
30
0
11
-3.1899570895738893
21
-14.285279732877495
31
0
0
LINE
5
196
100
AcDbEntity
8
0
100
AcDbLine
10
-1.4719414187975244
20
-14.883045178586723
30
0
11
-1.4719414187975226
21
-12.883045297796013
31
0
0
LINE
5
197
100
AcDbEntity
8
0
100
AcDbLine
10
-1.4719414187975222
20
-12.883045297796013
30
0
11
-1.2859463168688112
21
-12.883045297796013
31
0
0
LINE
5
198
100
AcDbEntity
8
0
100
AcDbLine
10
-1.2859463168688112
20
-12.883045297796013
30
0
11
-1.285946316868813
21
-14.883045178586723
31
0
0
LINE
5
199
100
AcDbEntity
8
0
100
AcDbLine
10
-1.2859463168688134
20
-14.883045178586723
30
0
11
-1.4719414187975244
21
-14.883045178586723
31
0
0
LINE
5
200
100
AcDbEntity
8
0
100
AcDbLine
10
-1.4719414187975244
20
-14.883045178586723
30
0
11
-1.4719414187975242
21
-14.70427415960479
31
0
0
LINE
5
201
100
AcDbEntity
8
0
100
AcDbLine
10
-1.4719414187975222
20
-14.70427415960479
30
0
11
-0.1932000590868288
21
-14.70427415960479
31
0
0
LINE
5
202
100
AcDbEntity
8
0
100
AcDbLine
10
-0.1932000590868288
20
-14.70427415960479
30
0
11
-0.19320005908682894
21
-14.883045178586723
31
0
0
LINE
5
203
100
AcDbEntity
8
0
100
AcDbLine
10
-0.19320005908683102
20
-14.883045178586723
30
0
11
-1.4719414187975244
21
-14.883045178586723
31
0
0
SPLINE
5
204
100
AcDbEntity
8
0
100
AcDbSpline
70
0
71
2
72
6
73
3
74
0
42
0.000000001
43
0.0000000001
44
0.0000000001
40
0
40
0
40
0
40
1
40
1
40
1
10
-11.180921500498764
20
-7.2537799435088512
30
0
10
-11.54092103796672
20
-7.2709228353927013
30
0
10
-13.975207066113464
20
-7.425208862347354
30
0
0
LINE
5
205
100
AcDbEntity
8
0
100
AcDbLine
10
-13.975207066113464
20
-7.425208862347354
30
0
11
-13.992349957997313
21
-10.322351630253543
31
0
0
SPLINE
5
206
100
AcDbEntity
8
0
100
AcDbSpline
70
0
71
2
72
6
73
3
74
0
42
0.000000001
43
0.0000000001
44
0.0000000001
40
0
40
0
40
0
40
1
40
1
40
1
10
-13.992349957997313
20
-10.322351630253543
30
0
10
-11.403778498942366
20
-10.236637468857515
30
0
10
-11.300921147639265
20
-10.168065901322114
30
0
0
LINE
5
207
100
AcDbEntity
8
0
100
AcDbLine
10
-11.300921147639265
20
-10.168065901322114
30
0
11
-10.992349689776411
21
-10.356637414021241
31
0
0
SPLINE
5
208
100
AcDbEntity
8
0
100
AcDbSpline
70
0
71
2
72
6
73
3
74
0
42
0.000000001
43
0.0000000001
44
0.0000000001
40
0
40
0
40
0
40
1
40
1
40
1
10
-10.992349689776411
20
-10.356637414021241
30
0
10
-11.335206931406965
20
-10.356637414021241
30
0
10
-14.009492700869551
20
-10.49378025106882
30
0
0
LINE
5
209
100
AcDbEntity
8
0
100
AcDbLine
10
-14.009492700869551
20
-10.49378025106882
30
0
11
-14.129492795044889
21
-10.596637304348697
31
0
0
LINE
5
210
100
AcDbEntity
8
0
100
AcDbLine
10
-14.129492795044889
20
-10.596637304348697
30
0
11
-14.283778523976316
21
-10.373780305905093
31
0
0
LINE
5
211
100
AcDbEntity
8
0
100
AcDbLine
10
-14.283778523976316
20
-10.373780305905093
30
0
11
-14.163778429800978
21
-10.322351630253543
31
0
0
LINE
5
212
100
AcDbEntity
8
0
100
AcDbLine
10
-14.163778429800978
20
-10.322351630253543
30
0
11
-14.146635686928741
21
-7.5280656176040068
31
0
0
SPLINE
5
213
100
AcDbEntity
8
0
100
AcDbSpline
70
0
71
2
72
6
73
3
74
0
42
0.000000001
43
0.0000000001
44
0.0000000001
40
0
40
0
40
0
40
1
40
1
40
1
10
-14.146635686928741
20
-7.5280656176040068
30
0
10
-14.146635686928741
20
-7.2194941597411528
30
0
10
-14.21520710545253
20
-6.9623513775298491
30
0
0
LINE
5
214
100
AcDbEntity
8
0
100
AcDbLine
10
-14.21520710545253
20
-6.9623513775298491
30
0
11
-14.146635686928741
21
-6.9280655937621489
31
0
0
LINE
5
215
100
AcDbEntity
8
0
100
AcDbLine
10
-14.146635686928741
20
-6.9280655937621489
30
0
11
-13.992349957997314
21
-7.2709228353927031
31
0
0
SPLINE
5
216
100
AcDbEntity
8
0
100
AcDbSpline
70
0
71
2
72
6
73
3
74
0
42
0.000000001
43
0.0000000001
44
0.0000000001
40
0
40
0
40
0
40
1
40
1
40
1
10
-13.992349957997314
20
-7.2709228353927031
30
0
10
-11.763778632456772
20
-7.1337802963683483
30
0
10
-11.48949236231517
20
-7.0480658369490978
30
0
0
LINE
5
217
100
AcDbEntity
8
0
100
AcDbLine
10
-11.48949236231517
20
-7.0480658369490978
30
0
11
-11.180921500498764
21
-7.2537799435088512
31
0
0
SPLINE
5
218
100
AcDbEntity
8
0
100
AcDbSpline
70
0
71
2
72
6
73
3
74
0
42
0.000000001
43
0.0000000001
44
0.0000000001
40
0
40
0
40
0
40
1
40
1
40
1
10
-12.655207222277632
20
-8.7794943409392729
30
0
10
-13.032349949652662
20
-8.3166374521682158
30
0
10
-13.426635568911545
20
-7.8709228592345601
30
0
0
LINE
5
219
100
AcDbEntity
8
0
100
AcDbLine
10
-13.426635568911545
20
-7.8709228592345601
30
0
11
-13.375206893259994
21
-7.8366370754668599
31
0
0
SPLINE
5
220
100
AcDbEntity
8
0
100
AcDbSpline
70
0
71
2
72
6
73
3
74
0
42
0.000000001
43
0.0000000001
44
0.0000000001
40
0
40
0
40
0
40
1
40
1
40
1
10
-13.375206893259994
20
-7.8366370754668599
30
0
10
-12.963778382117264
20
-8.2309229927489653
30
0
10
-12.552349870974531
20
-8.6423518019149181
30
0
0
SPLINE
5
221
100
AcDbEntity
8
0
100
AcDbSpline
70
0
71
2
72
6
73
3
74
0
42
0.000000001
43
0.0000000001
44
0.0000000001
40
0
40
0
40
0
40
1
40
1
40
1
10
-12.552349870974531
20
-8.6423518019149181
30
0
10
-12.278064196879377
20
-8.2652087765166637
30
0
10
-12.123778467947952
20
-7.9480660217234966
30
0
0
SPLINE
5
222
100
AcDbEntity
8
0
100
AcDbSpline
70
0
71
2
72
6
73
3
74
0
42
0.000000001
43
0.0000000001
44
0.0000000001
40
0
40
0
40
0
40
1
40
1
40
1
10
-12.123778467947952
20
-7.9480660217234966
30
0
10
-11.969492739016525
20
-7.6309229689071056
30
0
10
-12.072349792296402
20
-7.5452085094878552
30
0
0
LINE
5
223
100
AcDbEntity
8
0
100
AcDbLine
10
-12.072349792296402
20
-7.5452085094878552
30
0
11
-12.003778522784225
21
-7.510922725720155
31
0
0
LINE
5
224
100
AcDbEntity
8
0
100
AcDbLine
10
-12.003778522784225
20
-7.510922725720155
30
0
11
-11.798064118201248
21
-7.8537799673507092
31
0
0
SPLINE
5
225
100
AcDbEntity
8
0
100
AcDbSpline
70
0
71
2
72
6
73
3
74
0
42
0.000000001
43
0.0000000001
44
0.0000000001
40
0
40
0
40
0
40
1
40
1
40
1
10
-11.798064118201248
20
-7.8537799673507092
30
0
10
-11.849492495829574
20
-7.819494183583009
30
0
10
-11.995206778819076
20
-8.0680659668872234
30
0
0
SPLINE
5
226
100
AcDbEntity
8
0
100
AcDbSpline
70
0
71
2
72
6
73
3
74
0
42
0.000000001
43
0.0000000001
44
0.0000000001
40
0
40
0
40
0
40
1
40
1
40
1
10
-11.995206778819076
20
-8.0680659668872234
30
0
10
-12.140921061808577
20
-8.316637452168214
30
0
10
-12.43234962778758
20
-8.7623514490554211
30
0
0
SPLINE
5
227
100
AcDbEntity
8
0
100
AcDbSpline
70
0
71
2
72
6
73
3
74
0
42
0.000000001
43
0.0000000001
44
0.0000000001
40
0
40
0
40
0
40
1
40
1
40
1
10
-12.43234962778758
20
-8.7623514490554211
30
0
10
-11.918064063364973
20
-9.3109230952689526
30
0
10
-11.678064173037519
20
-9.53378039173578
30
0
0
SPLINE
5
228
100
AcDbEntity
8
0
100
AcDbSpline
70
0
71
2
72
6
73
3
74
0
42
0.000000001
43
0.0000000001
44
0.0000000001
40
0
40
0
40
0
40
1
40
1
40
1
10
-11.678064173037519
20
-9.53378039173578
30
0
10
-11.678064173037519
20
-9.7052087145278332
30
0
10
-11.72949284868907
20
-9.8766373353431103
30
0
0
SPLINE
5
229
100
AcDbEntity
8
0
100
AcDbSpline
70
0
71
2
72
6
73
3
74
0
42
0.000000001
43
0.0000000001
44
0.0000000001
40
0
40
0
40
0
40
1
40
1
40
1
10
-11.72949284868907
20
-9.8766373353431103
30
0
10
-11.935206955248823
20
-9.5509232836196301
30
0
10
-12.518064087206831
20
-8.8823516922423718
30
0
0
SPLINE
5
230
100
AcDbEntity
8
0
100
AcDbSpline
70
0
71
2
72
6
73
3
74
0
42
0.000000001
43
0.0000000001
44
0.0000000001
40
0
40
0
40
0
40
1
40
1
40
1
10
-12.518064087206831
20
-8.8823516922423718
30
0
10
-13.049492841536512
20
-9.5337803917357817
30
0
10
-13.803778445298185
20
-10.030923064274539
30
0
0
LINE
5
231
100
AcDbEntity
8
0
100
AcDbLine
10
-13.803778445298185
20
-10.030923064274539
30
0
11
-13.855207120949736
21
-9.9623517947623625
31
0
0
SPLINE
5
232
100
AcDbEntity
8
0
100
AcDbSpline
70
0
71
2
72
6
73
3
74
0
42
0.000000001
43
0.0000000001
44
0.0000000001
40
0
40
0
40
0
40
1
40
1
40
1
10
-13.855207120949736
20
-9.9623517947623625
30
0
10
-13.169492786700239
20
-9.4480659323165312
30
0
10
-12.655207222277632
20
-8.7794943409392729
30
0
0
LINE
5
233
100
AcDbEntity
8
0
100
AcDbLine
10
-2.2323486264295478
20
-9.3794946628043459
30
0
11
-3.3466360028333564
21
-9.4823517160842243
31
0
0
SPLINE
5
234
100
AcDbEntity
8
0
100
AcDbSpline
70
0
71
2
72
6
73
3
74
0
42
0.000000001
43
0.0000000001
44
0.0000000001
40
0
40
0
40
0
40
1
40
1
40
1
10
-3.3466360028333564
20
-9.4823517160842226
30
0
10
-3.329491322810163
20
-9.8252089577147768
30
0
10
-3.3980628903455634
20
-9.7566373901793764
30
0
0
LINE
5
235
100
AcDbEntity
8
0
100
AcDbLine
10
-3.3980628903455634
20
-9.7566373901793764
30
0
11
-3.5523483212537665
21
-9.4994946079680727
31
0
0
SPLINE
5
236
100
AcDbEntity
8
0
100
AcDbSpline
70
0
71
2
72
6
73
3
74
0
42
0.000000001
43
0.0000000001
44
0.0000000001
40
0
40
0
40
0
40
1
40
1
40
1
10
-3.5523483212537665
20
-9.4994946079680727
30
0
10
-3.5009214337415595
20
-9.4137801485488222
30
0
10
-3.5009214337415595
20
-9.2423518257567689
30
0
0
LINE
5
237
100
AcDbEntity
8
0
100
AcDbLine
10
-3.5009214337415595
20
-9.2423518257567689
30
0
11
-3.50092143374156
21
-8.4023519115874574
31
0
0
SPLINE
5
238
100
AcDbEntity
8
0
100
AcDbSpline
70
0
71
2
72
6
73
3
74
0
42
0.000000001
43
0.0000000001
44
0.0000000001
40
0
40
0
40
0
40
1
40
1
40
1
10
-3.5009214337415595
20
-8.4023519115874574
30
0
10
-3.4837767537183661
20
-8.1623517232367799
30
0
10
-3.5694930012769599
20
-7.9566376166770283
30
0
0
LINE
5
239
100
AcDbEntity
8
0
100
AcDbLine
10
-3.5694930012769599
20
-7.9566376166770283
30
0
11
-3.5180637295789619
21
-7.9223518329093281
31
0
0
LINE
5
240
100
AcDbEntity
8
0
100
AcDbLine
10
-3.5180637295789619
20
-7.9223518329093281
30
0
11
-3.3637782986707587
21
-8.1623517232367817
31
0
0
LINE
5
241
100
AcDbEntity
8
0
100
AcDbLine
10
-3.3637782986707587
20
-8.1623517232367799
30
0
11
-2.5066348965711494
21
-8.0423517780730531
31
0
0
LINE
5
242
100
AcDbEntity
8
0
100
AcDbLine
10
-2.5066348965711494
20
-8.0423517780730531
30
0
11
-2.4037787373609443
21
-7.9052089410254762
31
0
0
LINE
5
243
100
AcDbEntity
8
0
100
AcDbLine
10
-2.4037787373609443
20
-7.9052089410254762
30
0
11
-2.1980640347547431
21
-8.0937804537246034
31
0
0
LINE
5
244
100
AcDbEntity
8
0
100
AcDbLine
10
-2.1980640347547431
20
-8.0937804537246034
30
0
11
-2.3180624898023505
21
-8.2137803988883302
31
0
0
LINE
5
245
100
AcDbEntity
8
0
100
AcDbLine
10
-2.3180624898023505
20
-8.2137803988883302
30
0
11
-2.3523494656629458
21
-9.2423518257567689
31
0
0
LINE
5
246
100
AcDbEntity
8
0
100
AcDbLine
10
-2.3523494656629462
20
-9.2423518257567689
30
0
11
-2.2323486264295478
21
-9.3794946628043459
31
0
0
LINE
5
247
100
AcDbEntity
8
0
100
AcDbLine
10
-1.6494914944715422
20
-6.9966374593207643
30
0
11
-1.4266344960279387
21
-7.1680660801360414
31
0
0
LINE
5
248
100
AcDbEntity
8
0
100
AcDbLine
10
-1.4266344960279387
20
-7.1680660801360405
30
0
11
-1.5294906552381438
21
-7.3052089171836174
31
0
0
LINE
5
249
100
AcDbEntity
8
0
100
AcDbLine
10
-1.5294906552381438
20
-7.3052089171836174
30
0
11
-1.5294906552381424
21
-10.065208848042229
31
0
0
SPLINE
5
250
100
AcDbEntity
8
0
100
AcDbSpline
70
0
71
2
72
6
73
3
74
0
42
0.000000001
43
0.0000000001
44
0.0000000001
40
0
40
0
40
0
40
1
40
1
40
1
10
-1.5294906552381415
20
-10.06520884804223
30
0
10
-1.5294906552381415
20
-10.596637602371912
30
0
10
-1.6666337903089423
20
-10.819494898838737
30
0
0
SPLINE
5
251
100
AcDbEntity
8
0
100
AcDbSpline
70
0
71
2
72
6
73
3
74
0
42
0.000000001
43
0.0000000001
44
0.0000000001
40
0
40
0
40
0
40
1
40
1
40
1
10
-1.6666337903089423
20
-10.819494898838737
30
0
10
-1.8552061970777411
20
-10.528066034836511
30
0
10
-2.3523494656629462
20
-10.03092306427453
30
0
0
LINE
5
252
100
AcDbEntity
8
0
100
AcDbLine
10
-2.3523494656629462
20
-10.03092306427453
30
0
11
-2.3009201939649482
21
-9.9794946866462038
31
0
0
LINE
5
253
100
AcDbEntity
8
0
100
AcDbLine
10
-2.3009201939649482
20
-9.9794946866462038
30
0
11
-1.7352053578443425
21
-10.425208981556635
31
0
0
SPLINE
5
254
100
AcDbEntity
8
0
100
AcDbSpline
70
0
71
2
72
6
73
3
74
0
42
0.000000001
43
0.0000000001
44
0.0000000001
40
0
40
0
40
0
40
1
40
1
40
1
10
-1.7352053578443427
20
-10.425208981556635
30
0
10
-1.700920766169538
20
-10.425208981556635
30
0
10
-1.6837784703321357
20
-10.08235173992608
30
0
0
LINE
5
255
100
AcDbEntity
8
0
100
AcDbLine
10
-1.6837784703321357
20
-10.08235173992608
30
0
11
-1.683778470332137
21
-7.3052089171836183
31
0
0
SPLINE
5
256
100
AcDbEntity
8
0
100
AcDbSpline
70
0
71
2
72
6
73
3
74
0
42
0.000000001
43
0.0000000001
44
0.0000000001
40
0
40
0
40
0
40
1
40
1
40
1
10
-1.6837784703321379
20
-7.3052089171836183
30
0
10
-2.9694911892957609
20
-7.4423517542311952
30
0
10
-3.072349732691757
20
-7.4594946461150453
30
0
0
LINE
5
257
100
AcDbEntity
8
0
100
AcDbLine
10
-3.072349732691757
20
-7.4594946461150453
30
0
11
-3.3294913228101652
21
-7.3052089171836183
31
0
0
SPLINE
5
258
100
AcDbEntity
8
0
100
AcDbSpline
70
0
71
2
72
6
73
3
74
0
42
0.000000001
43
0.0000000001
44
0.0000000001
40
0
40
0
40
0
40
1
40
1
40
1
10
-3.3294913228101652
20
-7.3052089171836183
30
0
10
-3.072349732691757
20
-7.3223518090674684
30
0
10
-1.7352053578443449
20
-7.1509231882521913
30
0
0
LINE
5
259
100
AcDbEntity
8
0
100
AcDbLine
10
-1.7352053578443449
20
-7.1509231882521913
30
0
11
-1.6494914944715422
21
-6.9966374593207643
31
0
0
LINE
5
260
100
AcDbEntity
8
0
100
AcDbLine
10
-2.489492600733747
20
-8.2137803988883302
30
0
11
-3.3466360028333564
21
-8.3166374521682087
31
0
0
LINE
5
261
100
AcDbEntity
8
0
100
AcDbLine
10
-3.3466360028333564
20
-8.3166374521682069
30
0
11
-3.3466360028333564
21
-8.7452091532180116
31
0
0
SPLINE
5
262
100
AcDbEntity
8
0
100
AcDbSpline
70
0
71
2
72
6
73
3
74
0
42
0.000000001
43
0.0000000001
44
0.0000000001
40
0
40
0
40
0
40
1
40
1
40
1
10
-3.3466360028333564
20
-8.7452091532180116
30
0
10
-2.8666350300855536
20
-8.6766375856826112
30
0
10
-2.8152057583875556
20
-8.6252089100310609
30
0
0
LINE
5
263
100
AcDbEntity
8
0
100
AcDbLine
10
-2.8152057583875556
20
-8.6252089100310609
30
0
11
-2.6437780316419501
21
-8.796637530846338
31
0
0
SPLINE
5
264
100
AcDbEntity
8
0
100
AcDbSpline
70
0
71
2
72
6
73
3
74
0
42
0.000000001
43
0.0000000001
44
0.0000000001
40
0
40
0
40
0
40
1
40
1
40
1
10
-2.6437780316419501
20
-8.796637530846338
30
0
10
-2.8152057583875556
20
-8.796637530846338
30
0
10
-3.3466360028333564
20
-8.8823516922423646
30
0
0
LINE
5
265
100
AcDbEntity
8
0
100
AcDbLine
10
-3.3466360028333564
20
-8.8823516922423646
30
0
11
-3.3466360028333564
21
-9.3280662851760194
31
0
0
LINE
5
266
100
AcDbEntity
8
0
100
AcDbLine
10
-3.3466360028333564
20
-9.3280662851760194
30
0
11
-2.5237771924085517
21
-9.2423518257567689
31
0
0
LINE
5
267
100
AcDbEntity
8
0
100
AcDbLine
10
-2.5237771924085517
20
-9.2423518257567689
30
0
11
-2.4894926007337475
21
-8.2137803988883302
31
0
0
SPLINE
5
268
100
AcDbEntity
8
0
100
AcDbSpline
70
0
71
2
72
6
73
3
74
0
42
0.000000001
43
0.0000000001
44
0.0000000001
40
0
40
0
40
0
40
1
40
1
40
1
10
-4.1180631573743725
20
-10.528066034836513
30
0
10
-4.1009208615369701
20
-10.836637194676143
30
0
10
-4.1694924290723705
20
-10.750923331303341
30
0
0
LINE
5
269
100
AcDbEntity
8
0
100
AcDbLine
10
-4.1694924290723705
20
-10.750923331303341
30
0
11
-4.340920155817976
21
-10.493780251068813
31
0
0
SPLINE
5
270
100
AcDbEntity
8
0
100
AcDbSpline
70
0
71
2
72
6
73
3
74
0
42
0.000000001
43
0.0000000001
44
0.0000000001
40
0
40
0
40
0
40
1
40
1
40
1
10
-4.340920155817976
20
-10.493780251068813
30
0
10
-4.2723485882825756
20
-10.390923197788936
30
0
10
-4.2723485882825756
20
-10.133780415577633
30
0
0
LINE
5
271
100
AcDbEntity
8
0
100
AcDbLine
10
-4.2723485882825756
20
-10.133780415577633
30
0
11
-4.2723485882825765
21
-7.9909231024215055
31
0
0
SPLINE
5
272
100
AcDbEntity
8
0
100
AcDbSpline
70
0
71
2
72
6
73
3
74
0
42
0.000000001
43
0.0000000001
44
0.0000000001
40
0
40
0
40
0
40
1
40
1
40
1
10
-4.2723485882825756
20
-7.9909231024215046
30
0
10
-4.2723485882825774
20
-7.6994945364425007
30
0
10
-4.3752071316785734
20
-7.4766375379988972
30
0
0
LINE
5
273
100
AcDbEntity
8
0
100
AcDbLine
10
-4.3752071316785734
20
-7.4766375379988972
30
0
11
-4.3237778599805754
21
-7.442351754231197
31
0
0
LINE
5
274
100
AcDbEntity
8
0
100
AcDbLine
10
-4.3237778599805754
20
-7.442351754231197
30
0
11
-4.0666338856763762
21
-7.7166374283263508
31
0
0
SPLINE
5
275
100
AcDbEntity
8
0
100
AcDbSpline
70
0
71
2
72
6
73
3
74
0
42
0.000000001
43
0.0000000001
44
0.0000000001
40
0
40
0
40
0
40
1
40
1
40
1
10
-4.0666338856763744
20
-7.7166374283263508
30
0
10
-4.1180631573743725
20
-7.8194947796294514
30
0
10
-4.1180631573743725
20
-8.059494669956905
30
0
0
LINE
5
276
100
AcDbEntity
8
0
100
AcDbLine
10
-4.1180631573743725
20
-8.059494669956905
30
0
11
-4.1180631573743707
21
-10.528066034836513
31
0
0
SPLINE
5
277
100
AcDbEntity
8
0
100
AcDbSpline
70
0
71
2
72
6
73
3
74
0
42
0.000000001
43
0.0000000001
44
0.0000000001
40
0
40
0
40
0
40
1
40
1
40
1
10
-4.1009208615369719
20
-6.825208838505489
30
0
10
-3.7409207280225676
20
-7.133780296368343
30
0
10
-3.5694930012769621
20
-7.2709231334159199
30
0
0
SPLINE
5
278
100
AcDbEntity
8
0
100
AcDbSpline
70
0
71
2
72
6
73
3
74
0
42
0.000000001
43
0.0000000001
44
0.0000000001
40
0
40
0
40
0
40
1
40
1
40
1
10
-3.5694930012769621
20
-7.2709231334159199
30
0
10
-3.6209198887891691
20
-7.442351754231197
30
0
10
-3.6723491604871672
20
-7.5794945912787739
30
0
0
SPLINE
5
279
100
AcDbEntity
8
0
100
AcDbSpline
70
0
71
2
72
6
73
3
74
0
42
0.000000001
43
0.0000000001
44
0.0000000001
40
0
40
0
40
0
40
1
40
1
40
1
10
-3.6723491604871672
20
-7.5794945912787739
30
0
10
-3.7923499997205656
20
-7.3394947009513203
30
0
10
-4.1523501332349699
20
-6.8766375141570393
30
0
0
LINE
5
280
100
AcDbEntity
8
0
100
AcDbLine
10
-4.1523501332349699
20
-6.8766375141570393
30
0
11
-4.1009208615369719
21
-6.825208838505489
31
0
0
ENDSEC
0
SECTION
2
OBJECTS
0
DICTIONARY
5
C
100
AcDbDictionary
3
ACAD_GROUP
350
D
3
ACAD_MLINESTYLE
350
17
0
DICTIONARY
5
D
100
AcDbDictionary
0
DICTIONARY
5
1A
330
C
100
AcDbDictionary
0
DICTIONARY
5
17
100
AcDbDictionary
0
ENDSEC
0
EOF
