0
SECTION
2
HEADER
9
$INSUNITS
70
4
9
$ACADVER
1
AC1014
9
$HANDSEED
5
FFFF
0
ENDSEC
0
SECTION
2
TABLES
0
TABLE
2
VPORT
5
8
100
AcDbSymbolTable
0
ENDTAB
0
TABLE
2
LTYPE
5
5
100
AcDbSymbolTable
0
LTYPE
5
14
100
AcDbSymbolTableRecord
100
AcDbLinetypeTableRecord
2
BYBLOCK
70
0
0
LTYPE
5
15
100
AcDbSymbolTableRecord
100
AcDbLinetypeTableRecord
2
BYLAYER
70
0
0
ENDTAB
0
TABLE
2
LAYER
5
2
100
AcDbSymbolTable
70
2
0
LAYER
5
50
100
AcDbSymbolTableRecord
100
AcDbLayerTableRecord
2
0
70
0
6
CONTINUOUS
0
ENDTAB
0
TABLE
2
STYLE
5
3
100
AcDbSymbolTable
70
1
0
STYLE
5
11
100
AcDbSymbolTableRecord
100
AcDbTextStyleTableRecord
2
STANDARD
70
0
0
ENDTAB
0
TABLE
2
VIEW
5
6
100
AcDbSymbolTable
70
0
0
ENDTAB
0
TABLE
2
UCS
5
7
100
AcDbSymbolTable
70
0
0
ENDTAB
0
TABLE
2
APPID
5
9
100
AcDbSymbolTable
70
2
0
APPID
5
12
100
AcDbSymbolTableRecord
100
AcDbRegAppTableRecord
2
ACAD
70
0
0
ENDTAB
0
TABLE
2
DIMSTYLE
5
A
100
AcDbSymbolTable
70
1
0
ENDTAB
0
TABLE
2
BLOCK_RECORD
5
1
100
AcDbSymbolTable
70
1
0
BLOCK_RECORD
5
1F
100
AcDbSymbolTableRecord
100
AcDbBlockTableRecord
2
*MODEL_SPACE
0
BLOCK_RECORD
5
1B
100
AcDbSymbolTableRecord
100
AcDbBlockTableRecord
2
*PAPER_SPACE
0
ENDTAB
0
ENDSEC
0
SECTION
2
BLOCKS
0
BLOCK
5
20
100
AcDbEntity
100
AcDbBlockBegin
2
*MODEL_SPACE
0
ENDBLK
5
21
100
AcDbEntity
100
AcDbBlockEnd
0
BLOCK
5
1C
100
AcDbEntity
100
AcDbBlockBegin
2
*PAPER_SPACE
0
ENDBLK
5
1D
100
AcDbEntity
100
AcDbBlockEnd
0
ENDSEC
0
SECTION
2
ENTITIES
0
LINE
5
100
100
AcDbEntity
8
0
100
AcDbLine
10
-20.000000298023227
20
29.545455201105639
30
0
11
-20.00000029802322
21
-8.4999982891027326
31
0
0
LINE
5
101
100
AcDbEntity
8
0
100
AcDbLine
10
19.999988287788529
20
38.681818837469272
30
0
11
19.999988287788529
21
-27.132268095276263
31
0
0
SPLINE
5
102
100
AcDbEntity
8
0
100
AcDbSpline
70
4
71
5
72
26
73
20
74
0
42
0.000000001
43
0.0000000001
44
0.0000000001
40
0
40
0
40
0
40
0
40
0
40
0
40
0.066666666666666666
40
0.13333333333333333
40
0.20000000000000001
40
0.26666666666666666
40
0.33333333333333331
40
0.39999999999999997
40
0.46666666666666662
40
0.53333333333333333
40
0.59999999999999998
40
0.66666666666666663
40
0.73333333333333328
40
0.79999999999999993
40
0.86666666666666659
40
0.93333333333333324
40
1
40
1
40
1
40
1
40
1
40
1
41
1
41
1
41
1
41
1
41
1
41
1
41
1
41
1
41
1
41
1
41
1
41
1
41
1
41
1
41
1
41
1
41
1
41
1
41
1
41
1
10
-19.088112634817076
20
38.925605562428316
30
0
10
-18.611910639252947
20
38.918039361318364
30
0
10
-17.647304676130258
20
38.900699665553049
30
0
10
-16.163770659524335
20
38.868108010681993
30
0
10
-14.112108381104099
20
38.81104817933312
30
0
10
-11.429483275112368
20
38.70624870548734
30
0
10
-8.6516580906212575
20
38.52993467050954
30
0
10
-5.8239406122846207
20
38.217362740865013
30
0
10
-3.0390346852928118
20
37.636279316494445
30
0
10
-0.41855154088154095
20
36.636915353034972
30
0
10
2.0482737648495668
20
35.358148265238846
30
0
10
4.4130845244064485
20
34.030919733959649
30
0
10
6.740442743327792
20
32.908223936276947
30
0
10
9.0703641376725503
20
32.177178830437512
30
0
10
11.34627905889073
20
31.797081557973058
30
0
10
13.53191306682168
20
31.725273000891725
30
0
10
15.197452065172692
20
31.898065978019261
30
0
10
16.398233900211562
20
32.151226527207577
30
0
10
17.17746454884481
20
32.374640379423816
30
0
10
17.561754154759846
20
32.500000484287781
30
0
0
SPLINE
5
103
100
AcDbEntity
8
0
100
AcDbSpline
70
4
71
5
72
26
73
20
74
0
42
0.000000001
43
0.0000000001
44
0.0000000001
40
0
40
0
40
0
40
0
40
0
40
0
40
0.066666666666666666
40
0.13333333333333333
40
0.20000000000000001
40
0.26666666666666666
40
0.33333333333333331
40
0.39999999999999997
40
0.46666666666666662
40
0.53333333333333333
40
0.59999999999999998
40
0.66666666666666663
40
0.73333333333333328
40
0.79999999999999993
40
0.86666666666666659
40
0.93333333333333324
40
1
40
1
40
1
40
1
40
1
40
1
41
1
41
1
41
1
41
1
41
1
41
1
41
1
41
1
41
1
41
1
41
1
41
1
41
1
41
1
41
1
41
1
41
1
41
1
41
1
41
1
10
-19.000000283122063
20
34.363637019287452
30
0
10
-18.46753155178304
20
34.360372994518244
30
0
10
-17.401188760695526
20
34.350369474621367
30
0
10
-15.797451428948047
20
34.324969025345901
30
0
10
-13.650689212462854
20
34.269889965173334
30
0
10
-10.955872128944534
20
34.153942194247023
30
0
10
-8.2597005233439909
20
33.951974109356364
30
0
10
-5.5808969165673075
20
33.595507381943975
30
0
10
-2.955858989164545
20
32.951783409484264
30
0
10
-0.43242482686640094
20
31.855304144556854
30
0
10
2.0152682121378782
20
30.491915159229649
30
0
10
4.4313990196589339
20
29.158505483812082
30
0
10
6.8501689553735918
20
28.155013285041193
30
0
10
9.274896151778135
20
27.680576890167302
30
0
10
11.608375010197648
20
27.586700885131563
30
0
10
13.787799142928579
20
27.749464575812603
30
0
10
15.389233805461398
20
28.044037251679939
30
0
10
16.507423054701221
20
28.346211163158937
30
0
10
17.216394998514332
20
28.583786547770245
30
0
10
17.561754154759821
20
28.711589656992082
30
0
0
LINE
5
104
100
AcDbEntity
8
0
100
AcDbLine
10
17.561754154759846
20
32.500000484287781
30
0
11
17.561754154759821
21
28.711589656992082
31
0
0
SPLINE
5
105
100
AcDbEntity
8
0
100
AcDbSpline
70
4
71
5
72
26
73
20
74
0
42
0.000000001
43
0.0000000001
44
0.0000000001
40
0
40
0
40
0
40
0
40
0
40
0
40
0.066666666666666666
40
0.13333333333333333
40
0.20000000000000001
40
0.26666666666666666
40
0.33333333333333331
40
0.39999999999999997
40
0.46666666666666662
40
0.53333333333333333
40
0.59999999999999998
40
0.66666666666666663
40
0.73333333333333328
40
0.79999999999999993
40
0.86666666666666659
40
0.93333333333333324
40
1
40
1
40
1
40
1
40
1
40
1
41
1
41
1
41
1
41
1
41
1
41
1
41
1
41
1
41
1
41
1
41
1
41
1
41
1
41
1
41
1
41
1
41
1
41
1
41
1
41
1
10
19.0118039679021
20
34.363656691068876
30
0
10
18.577938752279653
20
34.16073090148911
30
0
10
17.711180552816145
20
33.792074597630005
30
0
10
16.413989845861956
20
33.350664388723082
30
0
10
14.690078953085862
20
32.986988881577595
30
0
10
12.542922726505738
20
32.911151410818903
30
0
10
10.392977583502496
20
33.210557962751551
30
0
10
8.2271736875050969
20
33.860831175099349
30
0
10
6.003656643385793
20
34.81387614903538
30
0
10
3.7321911070687586
20
35.952702971489231
30
0
10
1.4654929002780719
20
37.122851117101739
30
0
10
-0.74576915666443044
20
38.178953164984975
30
0
10
-2.8689541126934355
20
39.009989624911007
30
0
10
-4.9494685294998373
20
39.608290624291243
30
0
10
-7.0719087879366826
20
40.034289927380257
30
0
10
-9.2671203594445828
20
40.308031972558638
30
0
10
-11.097501749476908
20
40.420710809373041
30
0
10
-12.51323580630441
20
40.447962440211434
30
0
10
-13.476140910937151
20
40.441010663224915
30
0
10
-13.962356387171209
20
40.431246496578702
30
0
0
SPLINE
5
106
100
AcDbEntity
8
0
100
AcDbSpline
70
4
71
5
72
26
73
20
74
0
42
0.000000001
43
0.0000000001
44
0.0000000001
40
0
40
0
40
0
40
0
40
0
40
0
40
0.066666666666666666
40
0.13333333333333333
40
0.20000000000000001
40
0.26666666666666666
40
0.33333333333333331
40
0.39999999999999997
40
0.46666666666666662
40
0.53333333333333333
40
0.59999999999999998
40
0.66666666666666663
40
0.73333333333333328
40
0.79999999999999993
40
0.86666666666666659
40
0.93333333333333324
40
1
40
1
40
1
40
1
40
1
40
1
41
1
41
1
41
1
41
1
41
1
41
1
41
1
41
1
41
1
41
1
41
1
41
1
41
1
41
1
41
1
41
1
41
1
41
1
41
1
41
1
10
19.000000283122063
20
39.181818837469272
30
0
10
18.786945412141304
20
38.988512147709578
30
0
10
18.321663844482149
20
38.627397560342295
30
0
10
17.506403476104364
20
38.162336202207008
30
0
10
16.181465136546091
20
37.695597606929041
30
0
10
14.155171499033369
20
37.388482324499229
30
0
10
11.828138524299289
20
37.389909873304489
30
0
10
9.406104901615592
20
37.788157306080279
30
0
10
7.1350173959151313
20
38.646947064924774
30
0
10
5.0072687420920472
20
39.840684160399306
30
0
10
2.9433169649441195
20
41.191239612771554
30
0
10
0.82071855039921926
20
42.507606442474298
30
0
10
-1.4422666512045779
20
43.657509342023971
30
0
10
-3.8051333102672684
20
44.646940055171896
30
0
10
-6.2489860149644212
20
45.474622139447035
30
0
10
-8.7585796930024138
20
46.145942511638125
30
0
10
-10.81286212669637
20
46.561384451712307
30
0
10
-12.378115645551402
20
46.806407673776896
30
0
10
-13.4324685561271
20
46.940367094859539
30
0
10
-13.962356387171209
20
47.000000700354576
30
0
0
LINE
5
107
100
AcDbEntity
8
0
100
AcDbLine
10
-13.962356387171209
20
47.000000700354576
30
0
11
-13.962356387171209
21
40.431246496578702
31
0
0
SPLINE
5
108
100
AcDbEntity
8
0
100
AcDbSpline
70
4
71
5
72
26
73
20
74
0
42
0.000000001
43
0.0000000001
44
0.0000000001
40
0
40
0
40
0
40
0
40
0
40
0
40
0.066666666666666666
40
0.13333333333333333
40
0.20000000000000001
40
0.26666666666666666
40
0.33333333333333331
40
0.39999999999999997
40
0.46666666666666662
40
0.53333333333333333
40
0.59999999999999998
40
0.66666666666666663
40
0.73333333333333328
40
0.79999999999999993
40
0.86666666666666659
40
0.93333333333333324
40
1
40
1
40
1
40
1
40
1
40
1
41
1
41
1
41
1
41
1
41
1
41
1
41
1
41
1
41
1
41
1
41
1
41
1
41
1
41
1
41
1
41
1
41
1
41
1
41
1
41
1
10
19.010610894105103
20
28.066748038157673
30
0
10
18.446802222160624
20
27.785856761248834
30
0
10
17.335052983419587
20
27.268519718848253
30
0
10
15.715035442121099
20
26.625851985696244
30
0
10
13.650899813773496
20
26.037565075977032
30
0
10
11.229088946096677
20
25.753896745011744
30
0
10
8.9535012560134533
20
25.913072114648465
30
0
10
6.7942279790414606
20
26.48089907344319
30
0
10
4.6933617940504107
20
27.3815167376193
30
0
10
2.5599992366316964
20
28.484996717167881
30
0
10
0.29931331410693324
20
29.639424040550324
30
0
10
-2.1481420922931442
20
30.70568211580634
30
0
10
-4.7956259240086414
20
31.576805133031467
30
0
10
-7.5254817011992046
20
32.23794443551774
30
0
10
-10.209996566267501
20
32.713618426265015
30
0
10
-12.79525379735728
20
33.011596931504194
30
0
10
-14.758953496166205
20
33.116537031046676
30
0
10
-16.170451236926361
20
33.122226859865279
30
0
10
-17.084265133130017
20
33.09388582457413
30
0
10
-17.534384469638063
20
33.071676938396038
30
0
0
SPLINE
5
109
100
AcDbEntity
8
0
100
AcDbSpline
70
4
71
5
72
26
73
20
74
0
42
0.000000001
43
0.0000000001
44
0.0000000001
40
0
40
0
40
0
40
0
40
0
40
0
40
0.066666666666666666
40
0.13333333333333333
40
0.20000000000000001
40
0.26666666666666666
40
0.33333333333333331
40
0.39999999999999997
40
0.46666666666666662
40
0.53333333333333333
40
0.59999999999999998
40
0.66666666666666663
40
0.73333333333333328
40
0.79999999999999993
40
0.86666666666666659
40
0.93333333333333324
40
1
40
1
40
1
40
1
40
1
40
1
41
1
41
1
41
1
41
1
41
1
41
1
41
1
41
1
41
1
41
1
41
1
41
1
41
1
41
1
41
1
41
1
41
1
41
1
41
1
41
1
10
19.009728167730401
20
23.407818002983571
30
0
10
18.604467214704187
20
23.097398880802039
30
0
10
17.783537146968108
20
22.520842983958559
30
0
10
16.520914636868241
20
21.788858484235043
30
0
10
14.774534318693286
20
21.080489601532477
30
0
10
12.486987737673553
20
20.647010729775875
30
0
10
10.100918506745003
20
20.662462546497132
30
0
10
7.631620852558024
20
21.104714395076122
30
0
10
5.110835620424405
20
21.917617838941407
30
0
10
2.5843897979976593
20
23.005276574448658
30
0
10
0.096789972825413517
20
24.247931319047773
30
0
10
-2.3275665068306113
20
25.508226612355308
30
0
10
-4.6889142682078617
20
26.647126658470537
30
0
10
-7.0552819649025613
20
27.518759498480247
30
0
10
-9.4975021680578262
20
28.023377481152604
30
0
10
-12.044671208827255
20
28.11660988255921
30
0
10
-14.179179588106745
20
27.849263989296457
30
0
10
-15.835363606143947
20
27.457301244162146
30
0
10
-16.963967113138651
20
27.111477482982998
30
0
10
-17.534384469638063
20
26.917439059264883
30
0
0
LINE
5
110
100
AcDbEntity
8
0
100
AcDbLine
10
-17.534384469638063
20
33.071676938396038
30
0
11
-17.534384469638063
21
26.917439059264883
31
0
0
SPLINE
5
111
100
AcDbEntity
8
0
100
AcDbSpline
70
4
71
5
72
26
73
20
74
0
42
0.000000001
43
0.0000000001
44
0.0000000001
40
0
40
0
40
0
40
0
40
0
40
0
40
0.066666666666666666
40
0.13333333333333333
40
0.20000000000000001
40
0.26666666666666666
40
0.33333333333333331
40
0.39999999999999997
40
0.46666666666666662
40
0.53333333333333333
40
0.59999999999999998
40
0.66666666666666663
40
0.73333333333333328
40
0.79999999999999993
40
0.86666666666666659
40
0.93333333333333324
40
1
40
1
40
1
40
1
40
1
40
1
41
1
41
1
41
1
41
1
41
1
41
1
41
1
41
1
41
1
41
1
41
1
41
1
41
1
41
1
41
1
41
1
41
1
41
1
41
1
41
1
10
-19.000000283122063
20
24.727273382923816
30
0
10
-18.481659734287337
20
24.928370611557238
30
0
10
-17.446083688038946
20
25.292928703024913
30
0
10
-15.896034763714056
20
25.726858215051998
30
0
10
-13.835981412961299
20
26.077961022965802
30
0
10
-11.272569203237502
20
26.133686214683102
30
0
10
-8.7218782559933548
20
25.811416334438668
30
0
10
-6.1856466392657792
20
25.136122707536437
30
0
10
-3.6663830376061974
20
24.163735847540551
30
0
10
-1.1674767237406052
20
22.995972790684476
30
0
10
1.3071473738835819
20
21.763614538557896
30
0
10
3.7534244327931292
20
20.608895684883066
30
0
10
6.1676364589500245
20
19.668119838817915
30
0
10
8.5468755739171449
20
19.056069222985549
30
0
10
10.889865607172231
20
18.843383865707036
30
0
10
13.196695432324843
20
19.060583326135951
30
0
10
15.013764853935378
20
19.584350247550752
30
0
10
16.360937476914547
20
20.172108544366658
30
0
10
17.252155917109292
20
20.649969338129623
30
0
10
17.696040997332833
20
20.910404615505893
30
0
0
SPLINE
5
112
100
AcDbEntity
8
0
100
AcDbSpline
70
4
71
5
72
26
73
20
74
0
42
0.000000001
43
0.0000000001
44
0.0000000001
40
0
40
0
40
0
40
0
40
0
40
0
40
0.066666666666666666
40
0.13333333333333333
40
0.20000000000000001
40
0.26666666666666666
40
0.33333333333333331
40
0.39999999999999997
40
0.46666666666666662
40
0.53333333333333333
40
0.59999999999999998
40
0.66666666666666663
40
0.73333333333333328
40
0.79999999999999993
40
0.86666666666666659
40
0.93333333333333324
40
1
40
1
40
1
40
1
40
1
40
1
41
1
41
1
41
1
41
1
41
1
41
1
41
1
41
1
41
1
41
1
41
1
41
1
41
1
41
1
41
1
41
1
41
1
41
1
41
1
41
1
10
-19.000000283122063
20
19.909091564741999
30
0
10
-18.55683540551038
20
20.142963079167757
30
0
10
-17.665416521389975
20
20.570842698920412
30
0
10
-16.313020529243978
20
21.093069221326157
30
0
10
-14.479070961619062
20
21.548469619514314
30
0
10
-12.134661603559664
20
21.712093768987415
30
0
10
-9.7385461636143837
20
21.47670125281358
30
0
10
-7.2930934751685941
20
20.869847082185622
30
0
10
-4.8044676695929391
20
19.955321814287764
30
0
10
-2.283306791550884
20
18.838989924513029
30
0
10
0.25748710272872888
20
17.647974509865151
30
0
10
2.8042261540094549
20
16.516333737156668
30
0
10
5.3441128688645492
20
15.568617802798091
30
0
10
7.8667525466914503
20
14.904711542694013
30
0
10
10.36595622298071
20
14.581405148714321
30
0
10
12.838693619814549
20
14.623870577566896
30
0
10
14.794912337020117
20
14.9550100850251
30
0
10
16.249758677442966
20
15.368824802879111
30
0
10
17.214221167278801
20
15.717708514542831
30
0
10
17.695093648048047
20
15.910402164928454
30
0
0
LINE
5
113
100
AcDbEntity
8
0
100
AcDbLine
10
17.696040997332833
20
20.910404615505893
30
0
11
17.695093648048047
21
15.910402164928454
31
0
0
SPLINE
5
114
100
AcDbEntity
8
0
100
AcDbSpline
70
4
71
5
72
26
73
20
74
0
42
0.000000001
43
0.0000000001
44
0.0000000001
40
0
40
0
40
0
40
0
40
0
40
0
40
0.066666666666666666
40
0.13333333333333333
40
0.20000000000000001
40
0.26666666666666666
40
0.33333333333333331
40
0.39999999999999997
40
0.46666666666666662
40
0.53333333333333333
40
0.59999999999999998
40
0.66666666666666663
40
0.73333333333333328
40
0.79999999999999993
40
0.86666666666666659
40
0.93333333333333324
40
1
40
1
40
1
40
1
40
1
40
1
41
1
41
1
41
1
41
1
41
1
41
1
41
1
41
1
41
1
41
1
41
1
41
1
41
1
41
1
41
1
41
1
41
1
41
1
41
1
41
1
10
19.008152367076967
20
15.090920259664999
30
0
10
18.615119130209273
20
14.831128736690285
30
0
10
17.809177114030678
20
14.345466722664913
30
0
10
16.540552384552921
20
13.718676684876847
30
0
10
14.72949889352728
20
13.088362793878192
30
0
10
12.270452573420549
20
12.651685623104337
30
0
10
9.6514128967723032
20
12.586906271368019
30
0
10
6.9268012378850949
20
12.905955774395199
30
0
10
4.2490820654270554
20
13.653072439386445
30
0
10
1.7058940439284833
20
14.775645798787384
30
0
10
-0.76615014225781219
20
16.083769248323804
30
0
10
-3.2590641070799302
20
17.353154805611346
30
0
10
-5.8427235913464415
20
18.378446210671481
30
0
10
-8.5041505884622755
20
19.031535971309602
30
0
10
-11.032834807120395
20
19.363164475633575
30
0
10
-13.322224830972409
20
19.404003854282816
30
0
10
-14.922329036247534
20
19.220864440212775
30
0
10
-15.987323643930598
20
18.966872668423143
30
0
10
-16.637663420968142
20
18.746099684091732
30
0
10
-16.947922238987548
20
18.622850769475093
30
0
0
SPLINE
5
115
100
AcDbEntity
8
0
100
AcDbSpline
70
4
71
5
72
26
73
20
74
0
42
0.000000001
43
0.0000000001
44
0.0000000001
40
0
40
0
40
0
40
0
40
0
40
0
40
0.066666666666666666
40
0.13333333333333333
40
0.20000000000000001
40
0.26666666666666666
40
0.33333333333333331
40
0.39999999999999997
40
0.46666666666666662
40
0.53333333333333333
40
0.59999999999999998
40
0.66666666666666663
40
0.73333333333333328
40
0.79999999999999993
40
0.86666666666666659
40
0.93333333333333324
40
1
40
1
40
1
40
1
40
1
40
1
41
1
41
1
41
1
41
1
41
1
41
1
41
1
41
1
41
1
41
1
41
1
41
1
41
1
41
1
41
1
41
1
41
1
41
1
41
1
41
1
10
19.007239466870686
20
10.27273615181401
30
0
10
18.461166192784507
20
10.050814478368022
30
0
10
17.376508586619451
20
9.626981084194755
30
0
10
15.771994079447062
20
9.0511724513037315
30
0
10
13.677867935891133
20
8.4049484461412352
30
0
10
11.136362843894732
20
7.8135490435924311
30
0
10
8.6690292993462954
20
7.485323071252318
30
0
10
6.2704957571994822
20
7.4821790790290175
30
0
10
3.9256955577791226
20
7.9544524631696127
30
0
10
1.6162122987999914
20
8.9949237582378743
30
0
10
-0.65993996087985995
20
10.333228200333664
30
0
10
-2.9062594059023232
20
11.633887749558426
30
0
10
-5.1306591693204018
20
12.572428046431552
30
0
10
-7.3619140163938921
20
13.061862031104372
30
0
10
-9.6438248420650901
20
13.280337263039474
30
0
10
-11.99386030375142
20
13.279906327930533
30
0
10
-13.936115650312509
20
13.144266429480211
30
0
10
-15.428280816621028
20
12.971326654721786
30
0
10
-16.438759975385167
20
12.825041838791069
30
0
10
-16.947922238987548
20
12.744126627796319
30
0
0
LINE
5
116
100
AcDbEntity
8
0
100
AcDbLine
10
-16.947922238987548
20
18.622850769475093
30
0
11
-16.947922238987548
21
12.744126627796319
31
0
0
SPLINE
5
117
100
AcDbEntity
8
0
100
AcDbSpline
70
4
71
5
72
26
73
20
74
0
42
0.000000001
43
0.0000000001
44
0.0000000001
40
0
40
0
40
0
40
0
40
0
40
0
40
0.066666666666666666
40
0.13333333333333333
40
0.20000000000000001
40
0.26666666666666666
40
0.33333333333333331
40
0.39999999999999997
40
0.46666666666666662
40
0.53333333333333333
40
0.59999999999999998
40
0.66666666666666663
40
0.73333333333333328
40
0.79999999999999993
40
0.86666666666666659
40
0.93333333333333324
40
1
40
1
40
1
40
1
40
1
40
1
41
1
41
1
41
1
41
1
41
1
41
1
41
1
41
1
41
1
41
1
41
1
41
1
41
1
41
1
41
1
41
1
41
1
41
1
41
1
41
1
10
-19.000000283122063
20
11.000000163912773
30
0
10
-18.601479696253634
20
11.074649646572025
30
0
10
-17.791386187347847
20
11.222966520553797
30
0
10
-16.53702532674815
20
11.442702242794329
30
0
10
-14.786084151657992
20
11.728372534408297
30
0
10
-12.470484723799764
20
12.044912070282802
30
0
10
-10.055985682378735
20
12.202161665780501
30
0
10
-7.5857794725970518
20
12.020120889740229
30
0
10
-5.1822600335894649
20
11.0515180596344
30
0
10
-2.786622946201931
20
9.4147076273199062
30
0
10
-0.25345520208736111
20
7.5655175834738353
30
0
10
2.5539976361548522
20
6.0616946888702987
30
0
10
5.6721360711000299
20
5.3425622109365989
30
0
10
8.9404788652420368
20
5.5065654890608737
30
0
10
11.888067879176887
20
6.0404351318421137
30
0
10
14.305525207484532
20
6.7210491001395116
30
0
10
15.727508838657201
20
7.2734085335768679
30
0
10
16.497321807700448
20
7.676452853067639
30
0
10
16.879257661912838
20
7.9396554329776867
30
0
10
17.037428848158306
20
8.0699147379678866
30
0
0
SPLINE
5
118
100
AcDbEntity
8
0
100
AcDbSpline
70
4
71
5
72
26
73
20
74
0
42
0.000000001
43
0.0000000001
44
0.0000000001
40
0
40
0
40
0
40
0
40
0
40
0
40
0.066666666666666666
40
0.13333333333333333
40
0.20000000000000001
40
0.26666666666666666
40
0.33333333333333331
40
0.39999999999999997
40
0.46666666666666662
40
0.53333333333333333
40
0.59999999999999998
40
0.66666666666666663
40
0.73333333333333328
40
0.79999999999999993
40
0.86666666666666659
40
0.93333333333333324
40
1
40
1
40
1
40
1
40
1
40
1
41
1
41
1
41
1
41
1
41
1
41
1
41
1
41
1
41
1
41
1
41
1
41
1
41
1
41
1
41
1
41
1
41
1
41
1
41
1
41
1
10
-19.000000283122063
20
5.4545461101965431
30
0
10
-18.693976013882999
20
5.547095250444678
30
0
10
-18.048467392798131
20
5.7268124178104207
30
0
10
-16.97975093123512
20
5.9804224797407235
30
0
10
-15.353063054549018
20
6.2848656413086523
30
0
10
-12.990347366888674
20
6.5855937332855294
30
0
10
-10.346536360747521
20
6.7087529877275234
30
0
10
-7.5106242346182039
20
6.5099885658953616
30
0
10
-4.6960833747541422
20
5.6256868580091037
30
0
10
-1.982561483235765
20
4.1399498491970803
30
0
10
0.64509806204205322
20
2.4191886056901311
30
0
10
3.2399483253750221
20
0.9206924314798679
30
0
10
5.845583946299219
20
0.015101934319583291
30
0
10
8.4504270050874748
20
-0.17696201210187198
30
0
10
10.922041519224585
20
-0.031294088318750996
30
0
10
13.201937661336661
20
0.27960456085051605
30
0
10
14.848856836317685
20
0.57866421575338634
30
0
10
15.982448125957312
20
0.81854626969723077
30
0
10
16.693252182276257
20
0.98502044952637091
30
0
10
17.037428848158306
20
1.0699146336597591
30
0
0
LINE
5
119
100
AcDbEntity
8
0
100
AcDbLine
10
17.037428848158306
20
8.0699147379678866
30
0
11
17.037428848158306
21
1.0699146336597591
31
0
0
LINE
5
120
100
AcDbEntity
8
0
100
AcDbLine
10
-17.000000253319786
20
4.2174663013190745
30
0
11
-17.000000253319786
21
-7.0000001043081381
31
0
0
SPLINE
5
121
100
AcDbEntity
8
0
100
AcDbSpline
70
4
71
5
72
26
73
20
74
0
42
0.000000001
43
0.0000000001
44
0.0000000001
40
0
40
0
40
0
40
0
40
0
40
0
40
0.066666666666666666
40
0.13333333333333333
40
0.20000000000000001
40
0.26666666666666666
40
0.33333333333333331
40
0.39999999999999997
40
0.46666666666666662
40
0.53333333333333333
40
0.59999999999999998
40
0.66666666666666663
40
0.73333333333333328
40
0.79999999999999993
40
0.86666666666666659
40
0.93333333333333324
40
1
40
1
40
1
40
1
40
1
40
1
41
1
41
1
41
1
41
1
41
1
41
1
41
1
41
1
41
1
41
1
41
1
41
1
41
1
41
1
41
1
41
1
41
1
41
1
41
1
41
1
10
19.005413666458125
20
0.63636793611215225
30
0
10
18.647698472074971
20
0.4080506890848693
30
0
10
17.901755684021182
20
-0.026474803010592407
30
0
10
16.691194321741204
20
-0.61205136307065111
30
0
10
14.893439105616576
20
-1.2584340092376163
30
0
10
12.347502055417731
20
-1.8278543771195013
30
0
10
9.5571901718508521
20
-2.1063221806266559
30
0
10
6.6125223754389246
20
-2.0290826659825605
30
0
10
3.7447375452964806
20
-1.424792724007649
30
0
10
1.1424654491312474
20
-0.22440649353411601
30
0
10
-1.27693902090135
20
1.3215619514904122
30
0
10
-3.6601807194530815
20
2.8769341653602707
30
0
10
-6.1434724360648438
20
4.1145483289230711
30
0
10
-8.7745465058787122
20
4.8161167985525113
30
0
10
-11.305203416483883
20
5.1033315771657879
30
0
10
-13.569415464377494
20
5.0829487773354822
30
0
10
-15.116480558893702
20
4.8564216471945096
30
0
10
-16.118963994978046
20
4.578765629821488
30
0
10
-16.717895956997157
20
4.3458569414220802
30
0
10
-17.000000253319786
20
4.2174663013190745
30
0
0
SPLINE
5
122
100
AcDbEntity
8
0
100
AcDbSpline
70
4
71
5
72
26
73
20
74
0
42
0.000000001
43
0.0000000001
44
0.0000000001
40
0
40
0
40
0
40
0
40
0
40
0
40
0.066666666666666666
40
0.13333333333333333
40
0.20000000000000001
40
0.26666666666666666
40
0.33333333333333331
40
0.39999999999999997
40
0.46666666666666662
40
0.53333333333333333
40
0.59999999999999998
40
0.66666666666666663
40
0.73333333333333328
40
0.79999999999999993
40
0.86666666666666659
40
0.93333333333333324
40
1
40
1
40
1
40
1
40
1
40
1
41
1
41
1
41
1
41
1
41
1
41
1
41
1
41
1
41
1
41
1
41
1
41
1
41
1
41
1
41
1
41
1
41
1
41
1
41
1
41
1
10
19.004109859097671
20
-6.2449799490058187
30
0
10
18.55870152679416
20
-6.3335197044071503
30
0
10
17.65797675907471
20
-6.5128541036710086
30
0
10
16.277106180150565
20
-6.7888844179314081
30
0
10
14.376458303257763
20
-7.1687945231669206
30
0
10
11.902917074996836
20
-7.6432944640709231
30
0
10
9.3501227323856835
20
-8.012643891934502
30
0
10
6.7422697698069847
20
-8.1396275530224109
30
0
10
4.1612367645226822
20
-7.6257216677165749
30
0
10
1.6193283384972692
20
-6.3814821624589229
30
0
10
-0.9579253447541598
20
-4.7707406942156458
30
0
10
-3.6429838204104144
20
-3.2804942459710453
30
0
10
-6.4557614958141505
20
-2.3743351125488328
30
0
10
-9.3048341726335941
20
-2.2933524197169772
30
0
10
-11.897808491358656
20
-2.797764773952272
30
0
10
-14.09951822393653
20
-3.7763668724603594
30
0
10
-15.494303791362238
20
-4.8792356600453726
30
0
10
-16.328938196138182
20
-5.8748020889062067
30
0
10
-16.791885430775142
20
-6.612580137240057
30
0
10
-17.000000253319786
20
-7.0000001043081381
30
0
0
LINE
5
123
100
AcDbEntity
8
0
100
AcDbLine
10
-19.088112634817076
20
38.925605562428316
30
0
11
-19.500000298023231
21
38.925605562428316
31
0
0
LINE
5
124
100
AcDbEntity
8
0
100
AcDbLine
10
-20.000000298023231
20
38.425605562428316
30
0
11
-20.000000298023227
21
29.545455201105639
31
0
0
LINE
5
125
100
AcDbEntity
8
0
100
AcDbLine
10
19.000000283122063
20
39.181818837469272
30
0
11
19.499988287788533
21
39.181818837469272
31
0
0
LINE
5
126
100
AcDbEntity
8
0
100
AcDbLine
10
-19.000000283122063
20
5.4545461101965431
30
0
11
-19.000000283122066
21
-8.499998289102761
31
0
0
LINE
5
127
100
AcDbEntity
8
0
100
AcDbLine
10
-19.000000283122063
20
34.363637019287452
30
0
11
-19.000000283122063
21
24.727273382923816
31
0
0
LINE
5
128
100
AcDbEntity
8
0
100
AcDbLine
10
-19.000000283122063
20
19.909091564741999
30
0
11
-19.000000283122063
21
11.000000163912773
31
0
0
LINE
5
129
100
AcDbEntity
8
0
100
AcDbLine
10
19.0118039679021
20
34.363656691068876
30
0
11
19.010610894105103
21
28.066748038157673
31
0
0
LINE
5
130
100
AcDbEntity
8
0
100
AcDbLine
10
19.009728167730401
20
23.407818002983571
30
0
11
19.008152367076967
21
15.090920259664999
31
0
0
LINE
5
131
100
AcDbEntity
8
0
100
AcDbLine
10
19.007239466870686
20
10.27273615181401
30
0
11
19.005413666458125
21
0.63636793611215225
31
0
0
LINE
5
132
100
AcDbEntity
8
0
100
AcDbLine
10
19.004109859097671
20
-6.2449799490058187
30
0
11
19.000152367488081
21
-27.132173367337359
31
0
0
ARC
5
133
100
AcDbEntity
8
0
100
AcDbCircle
10
-19.50000029802322
20
-8.4999982891027308
30
0
40
0.50000000000000044
210
0
220
0
230
1
100
AcDbArc
50
180
51
270.00003246752317
0
ARC
5
134
100
AcDbEntity
8
0
100
AcDbCircle
10
-19.500000283121995
20
-8.4999982891027894
30
0
40
0.49999999999993305
210
0
220
0
230
1
100
AcDbArc
50
-89.99996753248459
51
0
0
ARC
5
135
100
AcDbEntity
8
0
100
AcDbCircle
10
19.499988287788536
20
38.68181883746928
30
0
40
0.49999999999999378
210
-0
220
0
230
1
100
AcDbArc
50
0
51
90.000000000000398
0
ARC
5
136
100
AcDbEntity
8
0
100
AcDbCircle
10
-19.500000298023238
20
38.425605562428316
30
0
40
0.49999999999999378
210
0
220
-0
230
1
100
AcDbArc
50
89.99999999999919
51
180
0
ARC
5
137
100
AcDbEntity
8
0
100
AcDbCircle
10
19.499988272887371
20
-27.998293490457513
30
0
40
0.99999999999999978
210
0
220
0
230
1
100
AcDbArc
50
-240.0108558176982
51
59.999999014147321
0
ENDSEC
0
SECTION
2
OBJECTS
0
DICTIONARY
5
C
100
AcDbDictionary
3
ACAD_GROUP
350
D
3
ACAD_MLINESTYLE
350
17
0
DICTIONARY
5
D
100
AcDbDictionary
0
DICTIONARY
5
1A
330
C
100
AcDbDictionary
0
DICTIONARY
5
17
100
AcDbDictionary
0
ENDSEC
0
EOF
